<?xml version="1.0" standalone="yes"?>
<svg xmlns="http://www.w3.org/2000/svg" version="1.1" width="256" height="256">
  <rect x="0" y="0" width="256" height="256" style="fill:#fff;shape-rendering:crispEdges;"/>
  <rect x="32.82051282051282" y="32.82051282051282" width="6.564102564102564" height="6.564102564102564" style="fill:#000;shape-rendering:crispEdges;"/>
  <rect x="39.38461538461538" y="32.82051282051282" width="6.564102564102564" height="6.564102564102564" style="fill:#000;shape-rendering:crispEdges;"/>
  <rect x="45.94871794871794" y="32.82051282051282" width="6.564102564102564" height="6.564102564102564" style="fill:#000;shape-rendering:crispEdges;"/>
  <rect x="52.51282051282051" y="32.82051282051282" width="6.564102564102564" height="6.564102564102564" style="fill:#000;shape-rendering:crispEdges;"/>
  <rect x="59.07692307692307" y="32.82051282051282" width="6.564102564102564" height="6.564102564102564" style="fill:#000;shape-rendering:crispEdges;"/>
  <rect x="65.64102564102564" y="32.82051282051282" width="6.564102564102564" height="6.564102564102564" style="fill:#000;shape-rendering:crispEdges;"/>
  <rect x="72.2051282051282" y="32.82051282051282" width="6.564102564102564" height="6.564102564102564" style="fill:#000;shape-rendering:crispEdges;"/>
  <rect x="85.33333333333333" y="32.82051282051282" width="6.564102564102564" height="6.564102564102564" style="fill:#000;shape-rendering:crispEdges;"/>
  <rect x="98.46153846153845" y="32.82051282051282" width="6.564102564102564" height="6.564102564102564" style="fill:#000;shape-rendering:crispEdges;"/>
  <rect x="111.58974358974359" y="32.82051282051282" width="6.564102564102564" height="6.564102564102564" style="fill:#000;shape-rendering:crispEdges;"/>
  <rect x="118.15384615384615" y="32.82051282051282" width="6.564102564102564" height="6.564102564102564" style="fill:#000;shape-rendering:crispEdges;"/>
  <rect x="124.71794871794872" y="32.82051282051282" width="6.564102564102564" height="6.564102564102564" style="fill:#000;shape-rendering:crispEdges;"/>
  <rect x="144.4102564102564" y="32.82051282051282" width="6.564102564102564" height="6.564102564102564" style="fill:#000;shape-rendering:crispEdges;"/>
  <rect x="150.97435897435895" y="32.82051282051282" width="6.564102564102564" height="6.564102564102564" style="fill:#000;shape-rendering:crispEdges;"/>
  <rect x="157.53846153846155" y="32.82051282051282" width="6.564102564102564" height="6.564102564102564" style="fill:#000;shape-rendering:crispEdges;"/>
  <rect x="164.1025641025641" y="32.82051282051282" width="6.564102564102564" height="6.564102564102564" style="fill:#000;shape-rendering:crispEdges;"/>
  <rect x="177.23076923076923" y="32.82051282051282" width="6.564102564102564" height="6.564102564102564" style="fill:#000;shape-rendering:crispEdges;"/>
  <rect x="183.7948717948718" y="32.82051282051282" width="6.564102564102564" height="6.564102564102564" style="fill:#000;shape-rendering:crispEdges;"/>
  <rect x="190.35897435897436" y="32.82051282051282" width="6.564102564102564" height="6.564102564102564" style="fill:#000;shape-rendering:crispEdges;"/>
  <rect x="196.9230769230769" y="32.82051282051282" width="6.564102564102564" height="6.564102564102564" style="fill:#000;shape-rendering:crispEdges;"/>
  <rect x="203.48717948717947" y="32.82051282051282" width="6.564102564102564" height="6.564102564102564" style="fill:#000;shape-rendering:crispEdges;"/>
  <rect x="210.05128205128204" y="32.82051282051282" width="6.564102564102564" height="6.564102564102564" style="fill:#000;shape-rendering:crispEdges;"/>
  <rect x="216.6153846153846" y="32.82051282051282" width="6.564102564102564" height="6.564102564102564" style="fill:#000;shape-rendering:crispEdges;"/>
  <rect x="32.82051282051282" y="39.38461538461538" width="6.564102564102564" height="6.564102564102564" style="fill:#000;shape-rendering:crispEdges;"/>
  <rect x="72.2051282051282" y="39.38461538461538" width="6.564102564102564" height="6.564102564102564" style="fill:#000;shape-rendering:crispEdges;"/>
  <rect x="98.46153846153845" y="39.38461538461538" width="6.564102564102564" height="6.564102564102564" style="fill:#000;shape-rendering:crispEdges;"/>
  <rect x="105.02564102564102" y="39.38461538461538" width="6.564102564102564" height="6.564102564102564" style="fill:#000;shape-rendering:crispEdges;"/>
  <rect x="118.15384615384615" y="39.38461538461538" width="6.564102564102564" height="6.564102564102564" style="fill:#000;shape-rendering:crispEdges;"/>
  <rect x="131.28205128205127" y="39.38461538461538" width="6.564102564102564" height="6.564102564102564" style="fill:#000;shape-rendering:crispEdges;"/>
  <rect x="137.84615384615384" y="39.38461538461538" width="6.564102564102564" height="6.564102564102564" style="fill:#000;shape-rendering:crispEdges;"/>
  <rect x="144.4102564102564" y="39.38461538461538" width="6.564102564102564" height="6.564102564102564" style="fill:#000;shape-rendering:crispEdges;"/>
  <rect x="150.97435897435895" y="39.38461538461538" width="6.564102564102564" height="6.564102564102564" style="fill:#000;shape-rendering:crispEdges;"/>
  <rect x="157.53846153846155" y="39.38461538461538" width="6.564102564102564" height="6.564102564102564" style="fill:#000;shape-rendering:crispEdges;"/>
  <rect x="164.1025641025641" y="39.38461538461538" width="6.564102564102564" height="6.564102564102564" style="fill:#000;shape-rendering:crispEdges;"/>
  <rect x="177.23076923076923" y="39.38461538461538" width="6.564102564102564" height="6.564102564102564" style="fill:#000;shape-rendering:crispEdges;"/>
  <rect x="216.6153846153846" y="39.38461538461538" width="6.564102564102564" height="6.564102564102564" style="fill:#000;shape-rendering:crispEdges;"/>
  <rect x="32.82051282051282" y="45.94871794871794" width="6.564102564102564" height="6.564102564102564" style="fill:#000;shape-rendering:crispEdges;"/>
  <rect x="45.94871794871794" y="45.94871794871794" width="6.564102564102564" height="6.564102564102564" style="fill:#000;shape-rendering:crispEdges;"/>
  <rect x="52.51282051282051" y="45.94871794871794" width="6.564102564102564" height="6.564102564102564" style="fill:#000;shape-rendering:crispEdges;"/>
  <rect x="59.07692307692307" y="45.94871794871794" width="6.564102564102564" height="6.564102564102564" style="fill:#000;shape-rendering:crispEdges;"/>
  <rect x="72.2051282051282" y="45.94871794871794" width="6.564102564102564" height="6.564102564102564" style="fill:#000;shape-rendering:crispEdges;"/>
  <rect x="91.89743589743588" y="45.94871794871794" width="6.564102564102564" height="6.564102564102564" style="fill:#000;shape-rendering:crispEdges;"/>
  <rect x="105.02564102564102" y="45.94871794871794" width="6.564102564102564" height="6.564102564102564" style="fill:#000;shape-rendering:crispEdges;"/>
  <rect x="111.58974358974359" y="45.94871794871794" width="6.564102564102564" height="6.564102564102564" style="fill:#000;shape-rendering:crispEdges;"/>
  <rect x="118.15384615384615" y="45.94871794871794" width="6.564102564102564" height="6.564102564102564" style="fill:#000;shape-rendering:crispEdges;"/>
  <rect x="144.4102564102564" y="45.94871794871794" width="6.564102564102564" height="6.564102564102564" style="fill:#000;shape-rendering:crispEdges;"/>
  <rect x="157.53846153846155" y="45.94871794871794" width="6.564102564102564" height="6.564102564102564" style="fill:#000;shape-rendering:crispEdges;"/>
  <rect x="164.1025641025641" y="45.94871794871794" width="6.564102564102564" height="6.564102564102564" style="fill:#000;shape-rendering:crispEdges;"/>
  <rect x="177.23076923076923" y="45.94871794871794" width="6.564102564102564" height="6.564102564102564" style="fill:#000;shape-rendering:crispEdges;"/>
  <rect x="190.35897435897436" y="45.94871794871794" width="6.564102564102564" height="6.564102564102564" style="fill:#000;shape-rendering:crispEdges;"/>
  <rect x="196.9230769230769" y="45.94871794871794" width="6.564102564102564" height="6.564102564102564" style="fill:#000;shape-rendering:crispEdges;"/>
  <rect x="203.48717948717947" y="45.94871794871794" width="6.564102564102564" height="6.564102564102564" style="fill:#000;shape-rendering:crispEdges;"/>
  <rect x="216.6153846153846" y="45.94871794871794" width="6.564102564102564" height="6.564102564102564" style="fill:#000;shape-rendering:crispEdges;"/>
  <rect x="32.82051282051282" y="52.51282051282051" width="6.564102564102564" height="6.564102564102564" style="fill:#000;shape-rendering:crispEdges;"/>
  <rect x="45.94871794871794" y="52.51282051282051" width="6.564102564102564" height="6.564102564102564" style="fill:#000;shape-rendering:crispEdges;"/>
  <rect x="52.51282051282051" y="52.51282051282051" width="6.564102564102564" height="6.564102564102564" style="fill:#000;shape-rendering:crispEdges;"/>
  <rect x="59.07692307692307" y="52.51282051282051" width="6.564102564102564" height="6.564102564102564" style="fill:#000;shape-rendering:crispEdges;"/>
  <rect x="72.2051282051282" y="52.51282051282051" width="6.564102564102564" height="6.564102564102564" style="fill:#000;shape-rendering:crispEdges;"/>
  <rect x="85.33333333333333" y="52.51282051282051" width="6.564102564102564" height="6.564102564102564" style="fill:#000;shape-rendering:crispEdges;"/>
  <rect x="91.89743589743588" y="52.51282051282051" width="6.564102564102564" height="6.564102564102564" style="fill:#000;shape-rendering:crispEdges;"/>
  <rect x="111.58974358974359" y="52.51282051282051" width="6.564102564102564" height="6.564102564102564" style="fill:#000;shape-rendering:crispEdges;"/>
  <rect x="124.71794871794872" y="52.51282051282051" width="6.564102564102564" height="6.564102564102564" style="fill:#000;shape-rendering:crispEdges;"/>
  <rect x="131.28205128205127" y="52.51282051282051" width="6.564102564102564" height="6.564102564102564" style="fill:#000;shape-rendering:crispEdges;"/>
  <rect x="150.97435897435895" y="52.51282051282051" width="6.564102564102564" height="6.564102564102564" style="fill:#000;shape-rendering:crispEdges;"/>
  <rect x="177.23076923076923" y="52.51282051282051" width="6.564102564102564" height="6.564102564102564" style="fill:#000;shape-rendering:crispEdges;"/>
  <rect x="190.35897435897436" y="52.51282051282051" width="6.564102564102564" height="6.564102564102564" style="fill:#000;shape-rendering:crispEdges;"/>
  <rect x="196.9230769230769" y="52.51282051282051" width="6.564102564102564" height="6.564102564102564" style="fill:#000;shape-rendering:crispEdges;"/>
  <rect x="203.48717948717947" y="52.51282051282051" width="6.564102564102564" height="6.564102564102564" style="fill:#000;shape-rendering:crispEdges;"/>
  <rect x="216.6153846153846" y="52.51282051282051" width="6.564102564102564" height="6.564102564102564" style="fill:#000;shape-rendering:crispEdges;"/>
  <rect x="32.82051282051282" y="59.07692307692307" width="6.564102564102564" height="6.564102564102564" style="fill:#000;shape-rendering:crispEdges;"/>
  <rect x="45.94871794871794" y="59.07692307692307" width="6.564102564102564" height="6.564102564102564" style="fill:#000;shape-rendering:crispEdges;"/>
  <rect x="52.51282051282051" y="59.07692307692307" width="6.564102564102564" height="6.564102564102564" style="fill:#000;shape-rendering:crispEdges;"/>
  <rect x="59.07692307692307" y="59.07692307692307" width="6.564102564102564" height="6.564102564102564" style="fill:#000;shape-rendering:crispEdges;"/>
  <rect x="72.2051282051282" y="59.07692307692307" width="6.564102564102564" height="6.564102564102564" style="fill:#000;shape-rendering:crispEdges;"/>
  <rect x="85.33333333333333" y="59.07692307692307" width="6.564102564102564" height="6.564102564102564" style="fill:#000;shape-rendering:crispEdges;"/>
  <rect x="91.89743589743588" y="59.07692307692307" width="6.564102564102564" height="6.564102564102564" style="fill:#000;shape-rendering:crispEdges;"/>
  <rect x="105.02564102564102" y="59.07692307692307" width="6.564102564102564" height="6.564102564102564" style="fill:#000;shape-rendering:crispEdges;"/>
  <rect x="118.15384615384615" y="59.07692307692307" width="6.564102564102564" height="6.564102564102564" style="fill:#000;shape-rendering:crispEdges;"/>
  <rect x="131.28205128205127" y="59.07692307692307" width="6.564102564102564" height="6.564102564102564" style="fill:#000;shape-rendering:crispEdges;"/>
  <rect x="157.53846153846155" y="59.07692307692307" width="6.564102564102564" height="6.564102564102564" style="fill:#000;shape-rendering:crispEdges;"/>
  <rect x="164.1025641025641" y="59.07692307692307" width="6.564102564102564" height="6.564102564102564" style="fill:#000;shape-rendering:crispEdges;"/>
  <rect x="177.23076923076923" y="59.07692307692307" width="6.564102564102564" height="6.564102564102564" style="fill:#000;shape-rendering:crispEdges;"/>
  <rect x="190.35897435897436" y="59.07692307692307" width="6.564102564102564" height="6.564102564102564" style="fill:#000;shape-rendering:crispEdges;"/>
  <rect x="196.9230769230769" y="59.07692307692307" width="6.564102564102564" height="6.564102564102564" style="fill:#000;shape-rendering:crispEdges;"/>
  <rect x="203.48717948717947" y="59.07692307692307" width="6.564102564102564" height="6.564102564102564" style="fill:#000;shape-rendering:crispEdges;"/>
  <rect x="216.6153846153846" y="59.07692307692307" width="6.564102564102564" height="6.564102564102564" style="fill:#000;shape-rendering:crispEdges;"/>
  <rect x="32.82051282051282" y="65.64102564102564" width="6.564102564102564" height="6.564102564102564" style="fill:#000;shape-rendering:crispEdges;"/>
  <rect x="72.2051282051282" y="65.64102564102564" width="6.564102564102564" height="6.564102564102564" style="fill:#000;shape-rendering:crispEdges;"/>
  <rect x="85.33333333333333" y="65.64102564102564" width="6.564102564102564" height="6.564102564102564" style="fill:#000;shape-rendering:crispEdges;"/>
  <rect x="111.58974358974359" y="65.64102564102564" width="6.564102564102564" height="6.564102564102564" style="fill:#000;shape-rendering:crispEdges;"/>
  <rect x="118.15384615384615" y="65.64102564102564" width="6.564102564102564" height="6.564102564102564" style="fill:#000;shape-rendering:crispEdges;"/>
  <rect x="131.28205128205127" y="65.64102564102564" width="6.564102564102564" height="6.564102564102564" style="fill:#000;shape-rendering:crispEdges;"/>
  <rect x="144.4102564102564" y="65.64102564102564" width="6.564102564102564" height="6.564102564102564" style="fill:#000;shape-rendering:crispEdges;"/>
  <rect x="157.53846153846155" y="65.64102564102564" width="6.564102564102564" height="6.564102564102564" style="fill:#000;shape-rendering:crispEdges;"/>
  <rect x="164.1025641025641" y="65.64102564102564" width="6.564102564102564" height="6.564102564102564" style="fill:#000;shape-rendering:crispEdges;"/>
  <rect x="177.23076923076923" y="65.64102564102564" width="6.564102564102564" height="6.564102564102564" style="fill:#000;shape-rendering:crispEdges;"/>
  <rect x="216.6153846153846" y="65.64102564102564" width="6.564102564102564" height="6.564102564102564" style="fill:#000;shape-rendering:crispEdges;"/>
  <rect x="32.82051282051282" y="72.2051282051282" width="6.564102564102564" height="6.564102564102564" style="fill:#000;shape-rendering:crispEdges;"/>
  <rect x="39.38461538461538" y="72.2051282051282" width="6.564102564102564" height="6.564102564102564" style="fill:#000;shape-rendering:crispEdges;"/>
  <rect x="45.94871794871794" y="72.2051282051282" width="6.564102564102564" height="6.564102564102564" style="fill:#000;shape-rendering:crispEdges;"/>
  <rect x="52.51282051282051" y="72.2051282051282" width="6.564102564102564" height="6.564102564102564" style="fill:#000;shape-rendering:crispEdges;"/>
  <rect x="59.07692307692307" y="72.2051282051282" width="6.564102564102564" height="6.564102564102564" style="fill:#000;shape-rendering:crispEdges;"/>
  <rect x="65.64102564102564" y="72.2051282051282" width="6.564102564102564" height="6.564102564102564" style="fill:#000;shape-rendering:crispEdges;"/>
  <rect x="72.2051282051282" y="72.2051282051282" width="6.564102564102564" height="6.564102564102564" style="fill:#000;shape-rendering:crispEdges;"/>
  <rect x="85.33333333333333" y="72.2051282051282" width="6.564102564102564" height="6.564102564102564" style="fill:#000;shape-rendering:crispEdges;"/>
  <rect x="98.46153846153845" y="72.2051282051282" width="6.564102564102564" height="6.564102564102564" style="fill:#000;shape-rendering:crispEdges;"/>
  <rect x="111.58974358974359" y="72.2051282051282" width="6.564102564102564" height="6.564102564102564" style="fill:#000;shape-rendering:crispEdges;"/>
  <rect x="124.71794871794872" y="72.2051282051282" width="6.564102564102564" height="6.564102564102564" style="fill:#000;shape-rendering:crispEdges;"/>
  <rect x="137.84615384615384" y="72.2051282051282" width="6.564102564102564" height="6.564102564102564" style="fill:#000;shape-rendering:crispEdges;"/>
  <rect x="150.97435897435895" y="72.2051282051282" width="6.564102564102564" height="6.564102564102564" style="fill:#000;shape-rendering:crispEdges;"/>
  <rect x="164.1025641025641" y="72.2051282051282" width="6.564102564102564" height="6.564102564102564" style="fill:#000;shape-rendering:crispEdges;"/>
  <rect x="177.23076923076923" y="72.2051282051282" width="6.564102564102564" height="6.564102564102564" style="fill:#000;shape-rendering:crispEdges;"/>
  <rect x="183.7948717948718" y="72.2051282051282" width="6.564102564102564" height="6.564102564102564" style="fill:#000;shape-rendering:crispEdges;"/>
  <rect x="190.35897435897436" y="72.2051282051282" width="6.564102564102564" height="6.564102564102564" style="fill:#000;shape-rendering:crispEdges;"/>
  <rect x="196.9230769230769" y="72.2051282051282" width="6.564102564102564" height="6.564102564102564" style="fill:#000;shape-rendering:crispEdges;"/>
  <rect x="203.48717948717947" y="72.2051282051282" width="6.564102564102564" height="6.564102564102564" style="fill:#000;shape-rendering:crispEdges;"/>
  <rect x="210.05128205128204" y="72.2051282051282" width="6.564102564102564" height="6.564102564102564" style="fill:#000;shape-rendering:crispEdges;"/>
  <rect x="216.6153846153846" y="72.2051282051282" width="6.564102564102564" height="6.564102564102564" style="fill:#000;shape-rendering:crispEdges;"/>
  <rect x="85.33333333333333" y="78.76923076923077" width="6.564102564102564" height="6.564102564102564" style="fill:#000;shape-rendering:crispEdges;"/>
  <rect x="91.89743589743588" y="78.76923076923077" width="6.564102564102564" height="6.564102564102564" style="fill:#000;shape-rendering:crispEdges;"/>
  <rect x="98.46153846153845" y="78.76923076923077" width="6.564102564102564" height="6.564102564102564" style="fill:#000;shape-rendering:crispEdges;"/>
  <rect x="105.02564102564102" y="78.76923076923077" width="6.564102564102564" height="6.564102564102564" style="fill:#000;shape-rendering:crispEdges;"/>
  <rect x="124.71794871794872" y="78.76923076923077" width="6.564102564102564" height="6.564102564102564" style="fill:#000;shape-rendering:crispEdges;"/>
  <rect x="131.28205128205127" y="78.76923076923077" width="6.564102564102564" height="6.564102564102564" style="fill:#000;shape-rendering:crispEdges;"/>
  <rect x="137.84615384615384" y="78.76923076923077" width="6.564102564102564" height="6.564102564102564" style="fill:#000;shape-rendering:crispEdges;"/>
  <rect x="144.4102564102564" y="78.76923076923077" width="6.564102564102564" height="6.564102564102564" style="fill:#000;shape-rendering:crispEdges;"/>
  <rect x="32.82051282051282" y="85.33333333333333" width="6.564102564102564" height="6.564102564102564" style="fill:#000;shape-rendering:crispEdges;"/>
  <rect x="39.38461538461538" y="85.33333333333333" width="6.564102564102564" height="6.564102564102564" style="fill:#000;shape-rendering:crispEdges;"/>
  <rect x="45.94871794871794" y="85.33333333333333" width="6.564102564102564" height="6.564102564102564" style="fill:#000;shape-rendering:crispEdges;"/>
  <rect x="59.07692307692307" y="85.33333333333333" width="6.564102564102564" height="6.564102564102564" style="fill:#000;shape-rendering:crispEdges;"/>
  <rect x="72.2051282051282" y="85.33333333333333" width="6.564102564102564" height="6.564102564102564" style="fill:#000;shape-rendering:crispEdges;"/>
  <rect x="85.33333333333333" y="85.33333333333333" width="6.564102564102564" height="6.564102564102564" style="fill:#000;shape-rendering:crispEdges;"/>
  <rect x="105.02564102564102" y="85.33333333333333" width="6.564102564102564" height="6.564102564102564" style="fill:#000;shape-rendering:crispEdges;"/>
  <rect x="131.28205128205127" y="85.33333333333333" width="6.564102564102564" height="6.564102564102564" style="fill:#000;shape-rendering:crispEdges;"/>
  <rect x="164.1025641025641" y="85.33333333333333" width="6.564102564102564" height="6.564102564102564" style="fill:#000;shape-rendering:crispEdges;"/>
  <rect x="170.66666666666666" y="85.33333333333333" width="6.564102564102564" height="6.564102564102564" style="fill:#000;shape-rendering:crispEdges;"/>
  <rect x="177.23076923076923" y="85.33333333333333" width="6.564102564102564" height="6.564102564102564" style="fill:#000;shape-rendering:crispEdges;"/>
  <rect x="183.7948717948718" y="85.33333333333333" width="6.564102564102564" height="6.564102564102564" style="fill:#000;shape-rendering:crispEdges;"/>
  <rect x="190.35897435897436" y="85.33333333333333" width="6.564102564102564" height="6.564102564102564" style="fill:#000;shape-rendering:crispEdges;"/>
  <rect x="196.9230769230769" y="85.33333333333333" width="6.564102564102564" height="6.564102564102564" style="fill:#000;shape-rendering:crispEdges;"/>
  <rect x="216.6153846153846" y="85.33333333333333" width="6.564102564102564" height="6.564102564102564" style="fill:#000;shape-rendering:crispEdges;"/>
  <rect x="45.94871794871794" y="91.89743589743588" width="6.564102564102564" height="6.564102564102564" style="fill:#000;shape-rendering:crispEdges;"/>
  <rect x="52.51282051282051" y="91.89743589743588" width="6.564102564102564" height="6.564102564102564" style="fill:#000;shape-rendering:crispEdges;"/>
  <rect x="78.76923076923077" y="91.89743589743588" width="6.564102564102564" height="6.564102564102564" style="fill:#000;shape-rendering:crispEdges;"/>
  <rect x="91.89743589743588" y="91.89743589743588" width="6.564102564102564" height="6.564102564102564" style="fill:#000;shape-rendering:crispEdges;"/>
  <rect x="111.58974358974359" y="91.89743589743588" width="6.564102564102564" height="6.564102564102564" style="fill:#000;shape-rendering:crispEdges;"/>
  <rect x="118.15384615384615" y="91.89743589743588" width="6.564102564102564" height="6.564102564102564" style="fill:#000;shape-rendering:crispEdges;"/>
  <rect x="131.28205128205127" y="91.89743589743588" width="6.564102564102564" height="6.564102564102564" style="fill:#000;shape-rendering:crispEdges;"/>
  <rect x="144.4102564102564" y="91.89743589743588" width="6.564102564102564" height="6.564102564102564" style="fill:#000;shape-rendering:crispEdges;"/>
  <rect x="170.66666666666666" y="91.89743589743588" width="6.564102564102564" height="6.564102564102564" style="fill:#000;shape-rendering:crispEdges;"/>
  <rect x="183.7948717948718" y="91.89743589743588" width="6.564102564102564" height="6.564102564102564" style="fill:#000;shape-rendering:crispEdges;"/>
  <rect x="216.6153846153846" y="91.89743589743588" width="6.564102564102564" height="6.564102564102564" style="fill:#000;shape-rendering:crispEdges;"/>
  <rect x="32.82051282051282" y="98.46153846153845" width="6.564102564102564" height="6.564102564102564" style="fill:#000;shape-rendering:crispEdges;"/>
  <rect x="52.51282051282051" y="98.46153846153845" width="6.564102564102564" height="6.564102564102564" style="fill:#000;shape-rendering:crispEdges;"/>
  <rect x="65.64102564102564" y="98.46153846153845" width="6.564102564102564" height="6.564102564102564" style="fill:#000;shape-rendering:crispEdges;"/>
  <rect x="72.2051282051282" y="98.46153846153845" width="6.564102564102564" height="6.564102564102564" style="fill:#000;shape-rendering:crispEdges;"/>
  <rect x="78.76923076923077" y="98.46153846153845" width="6.564102564102564" height="6.564102564102564" style="fill:#000;shape-rendering:crispEdges;"/>
  <rect x="85.33333333333333" y="98.46153846153845" width="6.564102564102564" height="6.564102564102564" style="fill:#000;shape-rendering:crispEdges;"/>
  <rect x="91.89743589743588" y="98.46153846153845" width="6.564102564102564" height="6.564102564102564" style="fill:#000;shape-rendering:crispEdges;"/>
  <rect x="105.02564102564102" y="98.46153846153845" width="6.564102564102564" height="6.564102564102564" style="fill:#000;shape-rendering:crispEdges;"/>
  <rect x="111.58974358974359" y="98.46153846153845" width="6.564102564102564" height="6.564102564102564" style="fill:#000;shape-rendering:crispEdges;"/>
  <rect x="131.28205128205127" y="98.46153846153845" width="6.564102564102564" height="6.564102564102564" style="fill:#000;shape-rendering:crispEdges;"/>
  <rect x="137.84615384615384" y="98.46153846153845" width="6.564102564102564" height="6.564102564102564" style="fill:#000;shape-rendering:crispEdges;"/>
  <rect x="164.1025641025641" y="98.46153846153845" width="6.564102564102564" height="6.564102564102564" style="fill:#000;shape-rendering:crispEdges;"/>
  <rect x="170.66666666666666" y="98.46153846153845" width="6.564102564102564" height="6.564102564102564" style="fill:#000;shape-rendering:crispEdges;"/>
  <rect x="203.48717948717947" y="98.46153846153845" width="6.564102564102564" height="6.564102564102564" style="fill:#000;shape-rendering:crispEdges;"/>
  <rect x="45.94871794871794" y="105.02564102564102" width="6.564102564102564" height="6.564102564102564" style="fill:#000;shape-rendering:crispEdges;"/>
  <rect x="52.51282051282051" y="105.02564102564102" width="6.564102564102564" height="6.564102564102564" style="fill:#000;shape-rendering:crispEdges;"/>
  <rect x="78.76923076923077" y="105.02564102564102" width="6.564102564102564" height="6.564102564102564" style="fill:#000;shape-rendering:crispEdges;"/>
  <rect x="85.33333333333333" y="105.02564102564102" width="6.564102564102564" height="6.564102564102564" style="fill:#000;shape-rendering:crispEdges;"/>
  <rect x="91.89743589743588" y="105.02564102564102" width="6.564102564102564" height="6.564102564102564" style="fill:#000;shape-rendering:crispEdges;"/>
  <rect x="105.02564102564102" y="105.02564102564102" width="6.564102564102564" height="6.564102564102564" style="fill:#000;shape-rendering:crispEdges;"/>
  <rect x="111.58974358974359" y="105.02564102564102" width="6.564102564102564" height="6.564102564102564" style="fill:#000;shape-rendering:crispEdges;"/>
  <rect x="118.15384615384615" y="105.02564102564102" width="6.564102564102564" height="6.564102564102564" style="fill:#000;shape-rendering:crispEdges;"/>
  <rect x="124.71794871794872" y="105.02564102564102" width="6.564102564102564" height="6.564102564102564" style="fill:#000;shape-rendering:crispEdges;"/>
  <rect x="131.28205128205127" y="105.02564102564102" width="6.564102564102564" height="6.564102564102564" style="fill:#000;shape-rendering:crispEdges;"/>
  <rect x="150.97435897435895" y="105.02564102564102" width="6.564102564102564" height="6.564102564102564" style="fill:#000;shape-rendering:crispEdges;"/>
  <rect x="164.1025641025641" y="105.02564102564102" width="6.564102564102564" height="6.564102564102564" style="fill:#000;shape-rendering:crispEdges;"/>
  <rect x="170.66666666666666" y="105.02564102564102" width="6.564102564102564" height="6.564102564102564" style="fill:#000;shape-rendering:crispEdges;"/>
  <rect x="177.23076923076923" y="105.02564102564102" width="6.564102564102564" height="6.564102564102564" style="fill:#000;shape-rendering:crispEdges;"/>
  <rect x="183.7948717948718" y="105.02564102564102" width="6.564102564102564" height="6.564102564102564" style="fill:#000;shape-rendering:crispEdges;"/>
  <rect x="190.35897435897436" y="105.02564102564102" width="6.564102564102564" height="6.564102564102564" style="fill:#000;shape-rendering:crispEdges;"/>
  <rect x="196.9230769230769" y="105.02564102564102" width="6.564102564102564" height="6.564102564102564" style="fill:#000;shape-rendering:crispEdges;"/>
  <rect x="203.48717948717947" y="105.02564102564102" width="6.564102564102564" height="6.564102564102564" style="fill:#000;shape-rendering:crispEdges;"/>
  <rect x="210.05128205128204" y="105.02564102564102" width="6.564102564102564" height="6.564102564102564" style="fill:#000;shape-rendering:crispEdges;"/>
  <rect x="216.6153846153846" y="105.02564102564102" width="6.564102564102564" height="6.564102564102564" style="fill:#000;shape-rendering:crispEdges;"/>
  <rect x="39.38461538461538" y="111.58974358974359" width="6.564102564102564" height="6.564102564102564" style="fill:#000;shape-rendering:crispEdges;"/>
  <rect x="52.51282051282051" y="111.58974358974359" width="6.564102564102564" height="6.564102564102564" style="fill:#000;shape-rendering:crispEdges;"/>
  <rect x="59.07692307692307" y="111.58974358974359" width="6.564102564102564" height="6.564102564102564" style="fill:#000;shape-rendering:crispEdges;"/>
  <rect x="65.64102564102564" y="111.58974358974359" width="6.564102564102564" height="6.564102564102564" style="fill:#000;shape-rendering:crispEdges;"/>
  <rect x="72.2051282051282" y="111.58974358974359" width="6.564102564102564" height="6.564102564102564" style="fill:#000;shape-rendering:crispEdges;"/>
  <rect x="85.33333333333333" y="111.58974358974359" width="6.564102564102564" height="6.564102564102564" style="fill:#000;shape-rendering:crispEdges;"/>
  <rect x="91.89743589743588" y="111.58974358974359" width="6.564102564102564" height="6.564102564102564" style="fill:#000;shape-rendering:crispEdges;"/>
  <rect x="98.46153846153845" y="111.58974358974359" width="6.564102564102564" height="6.564102564102564" style="fill:#000;shape-rendering:crispEdges;"/>
  <rect x="105.02564102564102" y="111.58974358974359" width="6.564102564102564" height="6.564102564102564" style="fill:#000;shape-rendering:crispEdges;"/>
  <rect x="111.58974358974359" y="111.58974358974359" width="6.564102564102564" height="6.564102564102564" style="fill:#000;shape-rendering:crispEdges;"/>
  <rect x="124.71794871794872" y="111.58974358974359" width="6.564102564102564" height="6.564102564102564" style="fill:#000;shape-rendering:crispEdges;"/>
  <rect x="137.84615384615384" y="111.58974358974359" width="6.564102564102564" height="6.564102564102564" style="fill:#000;shape-rendering:crispEdges;"/>
  <rect x="144.4102564102564" y="111.58974358974359" width="6.564102564102564" height="6.564102564102564" style="fill:#000;shape-rendering:crispEdges;"/>
  <rect x="150.97435897435895" y="111.58974358974359" width="6.564102564102564" height="6.564102564102564" style="fill:#000;shape-rendering:crispEdges;"/>
  <rect x="157.53846153846155" y="111.58974358974359" width="6.564102564102564" height="6.564102564102564" style="fill:#000;shape-rendering:crispEdges;"/>
  <rect x="164.1025641025641" y="111.58974358974359" width="6.564102564102564" height="6.564102564102564" style="fill:#000;shape-rendering:crispEdges;"/>
  <rect x="177.23076923076923" y="111.58974358974359" width="6.564102564102564" height="6.564102564102564" style="fill:#000;shape-rendering:crispEdges;"/>
  <rect x="190.35897435897436" y="111.58974358974359" width="6.564102564102564" height="6.564102564102564" style="fill:#000;shape-rendering:crispEdges;"/>
  <rect x="216.6153846153846" y="111.58974358974359" width="6.564102564102564" height="6.564102564102564" style="fill:#000;shape-rendering:crispEdges;"/>
  <rect x="32.82051282051282" y="118.15384615384615" width="6.564102564102564" height="6.564102564102564" style="fill:#000;shape-rendering:crispEdges;"/>
  <rect x="39.38461538461538" y="118.15384615384615" width="6.564102564102564" height="6.564102564102564" style="fill:#000;shape-rendering:crispEdges;"/>
  <rect x="45.94871794871794" y="118.15384615384615" width="6.564102564102564" height="6.564102564102564" style="fill:#000;shape-rendering:crispEdges;"/>
  <rect x="59.07692307692307" y="118.15384615384615" width="6.564102564102564" height="6.564102564102564" style="fill:#000;shape-rendering:crispEdges;"/>
  <rect x="65.64102564102564" y="118.15384615384615" width="6.564102564102564" height="6.564102564102564" style="fill:#000;shape-rendering:crispEdges;"/>
  <rect x="85.33333333333333" y="118.15384615384615" width="6.564102564102564" height="6.564102564102564" style="fill:#000;shape-rendering:crispEdges;"/>
  <rect x="111.58974358974359" y="118.15384615384615" width="6.564102564102564" height="6.564102564102564" style="fill:#000;shape-rendering:crispEdges;"/>
  <rect x="131.28205128205127" y="118.15384615384615" width="6.564102564102564" height="6.564102564102564" style="fill:#000;shape-rendering:crispEdges;"/>
  <rect x="150.97435897435895" y="118.15384615384615" width="6.564102564102564" height="6.564102564102564" style="fill:#000;shape-rendering:crispEdges;"/>
  <rect x="157.53846153846155" y="118.15384615384615" width="6.564102564102564" height="6.564102564102564" style="fill:#000;shape-rendering:crispEdges;"/>
  <rect x="164.1025641025641" y="118.15384615384615" width="6.564102564102564" height="6.564102564102564" style="fill:#000;shape-rendering:crispEdges;"/>
  <rect x="170.66666666666666" y="118.15384615384615" width="6.564102564102564" height="6.564102564102564" style="fill:#000;shape-rendering:crispEdges;"/>
  <rect x="177.23076923076923" y="118.15384615384615" width="6.564102564102564" height="6.564102564102564" style="fill:#000;shape-rendering:crispEdges;"/>
  <rect x="183.7948717948718" y="118.15384615384615" width="6.564102564102564" height="6.564102564102564" style="fill:#000;shape-rendering:crispEdges;"/>
  <rect x="190.35897435897436" y="118.15384615384615" width="6.564102564102564" height="6.564102564102564" style="fill:#000;shape-rendering:crispEdges;"/>
  <rect x="196.9230769230769" y="118.15384615384615" width="6.564102564102564" height="6.564102564102564" style="fill:#000;shape-rendering:crispEdges;"/>
  <rect x="203.48717948717947" y="118.15384615384615" width="6.564102564102564" height="6.564102564102564" style="fill:#000;shape-rendering:crispEdges;"/>
  <rect x="210.05128205128204" y="118.15384615384615" width="6.564102564102564" height="6.564102564102564" style="fill:#000;shape-rendering:crispEdges;"/>
  <rect x="216.6153846153846" y="118.15384615384615" width="6.564102564102564" height="6.564102564102564" style="fill:#000;shape-rendering:crispEdges;"/>
  <rect x="32.82051282051282" y="124.71794871794872" width="6.564102564102564" height="6.564102564102564" style="fill:#000;shape-rendering:crispEdges;"/>
  <rect x="39.38461538461538" y="124.71794871794872" width="6.564102564102564" height="6.564102564102564" style="fill:#000;shape-rendering:crispEdges;"/>
  <rect x="45.94871794871794" y="124.71794871794872" width="6.564102564102564" height="6.564102564102564" style="fill:#000;shape-rendering:crispEdges;"/>
  <rect x="52.51282051282051" y="124.71794871794872" width="6.564102564102564" height="6.564102564102564" style="fill:#000;shape-rendering:crispEdges;"/>
  <rect x="65.64102564102564" y="124.71794871794872" width="6.564102564102564" height="6.564102564102564" style="fill:#000;shape-rendering:crispEdges;"/>
  <rect x="72.2051282051282" y="124.71794871794872" width="6.564102564102564" height="6.564102564102564" style="fill:#000;shape-rendering:crispEdges;"/>
  <rect x="78.76923076923077" y="124.71794871794872" width="6.564102564102564" height="6.564102564102564" style="fill:#000;shape-rendering:crispEdges;"/>
  <rect x="85.33333333333333" y="124.71794871794872" width="6.564102564102564" height="6.564102564102564" style="fill:#000;shape-rendering:crispEdges;"/>
  <rect x="91.89743589743588" y="124.71794871794872" width="6.564102564102564" height="6.564102564102564" style="fill:#000;shape-rendering:crispEdges;"/>
  <rect x="98.46153846153845" y="124.71794871794872" width="6.564102564102564" height="6.564102564102564" style="fill:#000;shape-rendering:crispEdges;"/>
  <rect x="105.02564102564102" y="124.71794871794872" width="6.564102564102564" height="6.564102564102564" style="fill:#000;shape-rendering:crispEdges;"/>
  <rect x="111.58974358974359" y="124.71794871794872" width="6.564102564102564" height="6.564102564102564" style="fill:#000;shape-rendering:crispEdges;"/>
  <rect x="124.71794871794872" y="124.71794871794872" width="6.564102564102564" height="6.564102564102564" style="fill:#000;shape-rendering:crispEdges;"/>
  <rect x="131.28205128205127" y="124.71794871794872" width="6.564102564102564" height="6.564102564102564" style="fill:#000;shape-rendering:crispEdges;"/>
  <rect x="150.97435897435895" y="124.71794871794872" width="6.564102564102564" height="6.564102564102564" style="fill:#000;shape-rendering:crispEdges;"/>
  <rect x="196.9230769230769" y="124.71794871794872" width="6.564102564102564" height="6.564102564102564" style="fill:#000;shape-rendering:crispEdges;"/>
  <rect x="203.48717948717947" y="124.71794871794872" width="6.564102564102564" height="6.564102564102564" style="fill:#000;shape-rendering:crispEdges;"/>
  <rect x="32.82051282051282" y="131.28205128205127" width="6.564102564102564" height="6.564102564102564" style="fill:#000;shape-rendering:crispEdges;"/>
  <rect x="39.38461538461538" y="131.28205128205127" width="6.564102564102564" height="6.564102564102564" style="fill:#000;shape-rendering:crispEdges;"/>
  <rect x="52.51282051282051" y="131.28205128205127" width="6.564102564102564" height="6.564102564102564" style="fill:#000;shape-rendering:crispEdges;"/>
  <rect x="59.07692307692307" y="131.28205128205127" width="6.564102564102564" height="6.564102564102564" style="fill:#000;shape-rendering:crispEdges;"/>
  <rect x="85.33333333333333" y="131.28205128205127" width="6.564102564102564" height="6.564102564102564" style="fill:#000;shape-rendering:crispEdges;"/>
  <rect x="105.02564102564102" y="131.28205128205127" width="6.564102564102564" height="6.564102564102564" style="fill:#000;shape-rendering:crispEdges;"/>
  <rect x="124.71794871794872" y="131.28205128205127" width="6.564102564102564" height="6.564102564102564" style="fill:#000;shape-rendering:crispEdges;"/>
  <rect x="137.84615384615384" y="131.28205128205127" width="6.564102564102564" height="6.564102564102564" style="fill:#000;shape-rendering:crispEdges;"/>
  <rect x="157.53846153846155" y="131.28205128205127" width="6.564102564102564" height="6.564102564102564" style="fill:#000;shape-rendering:crispEdges;"/>
  <rect x="177.23076923076923" y="131.28205128205127" width="6.564102564102564" height="6.564102564102564" style="fill:#000;shape-rendering:crispEdges;"/>
  <rect x="190.35897435897436" y="131.28205128205127" width="6.564102564102564" height="6.564102564102564" style="fill:#000;shape-rendering:crispEdges;"/>
  <rect x="210.05128205128204" y="131.28205128205127" width="6.564102564102564" height="6.564102564102564" style="fill:#000;shape-rendering:crispEdges;"/>
  <rect x="72.2051282051282" y="137.84615384615384" width="6.564102564102564" height="6.564102564102564" style="fill:#000;shape-rendering:crispEdges;"/>
  <rect x="85.33333333333333" y="137.84615384615384" width="6.564102564102564" height="6.564102564102564" style="fill:#000;shape-rendering:crispEdges;"/>
  <rect x="131.28205128205127" y="137.84615384615384" width="6.564102564102564" height="6.564102564102564" style="fill:#000;shape-rendering:crispEdges;"/>
  <rect x="150.97435897435895" y="137.84615384615384" width="6.564102564102564" height="6.564102564102564" style="fill:#000;shape-rendering:crispEdges;"/>
  <rect x="157.53846153846155" y="137.84615384615384" width="6.564102564102564" height="6.564102564102564" style="fill:#000;shape-rendering:crispEdges;"/>
  <rect x="170.66666666666666" y="137.84615384615384" width="6.564102564102564" height="6.564102564102564" style="fill:#000;shape-rendering:crispEdges;"/>
  <rect x="177.23076923076923" y="137.84615384615384" width="6.564102564102564" height="6.564102564102564" style="fill:#000;shape-rendering:crispEdges;"/>
  <rect x="183.7948717948718" y="137.84615384615384" width="6.564102564102564" height="6.564102564102564" style="fill:#000;shape-rendering:crispEdges;"/>
  <rect x="190.35897435897436" y="137.84615384615384" width="6.564102564102564" height="6.564102564102564" style="fill:#000;shape-rendering:crispEdges;"/>
  <rect x="196.9230769230769" y="137.84615384615384" width="6.564102564102564" height="6.564102564102564" style="fill:#000;shape-rendering:crispEdges;"/>
  <rect x="203.48717948717947" y="137.84615384615384" width="6.564102564102564" height="6.564102564102564" style="fill:#000;shape-rendering:crispEdges;"/>
  <rect x="32.82051282051282" y="144.4102564102564" width="6.564102564102564" height="6.564102564102564" style="fill:#000;shape-rendering:crispEdges;"/>
  <rect x="52.51282051282051" y="144.4102564102564" width="6.564102564102564" height="6.564102564102564" style="fill:#000;shape-rendering:crispEdges;"/>
  <rect x="59.07692307692307" y="144.4102564102564" width="6.564102564102564" height="6.564102564102564" style="fill:#000;shape-rendering:crispEdges;"/>
  <rect x="65.64102564102564" y="144.4102564102564" width="6.564102564102564" height="6.564102564102564" style="fill:#000;shape-rendering:crispEdges;"/>
  <rect x="85.33333333333333" y="144.4102564102564" width="6.564102564102564" height="6.564102564102564" style="fill:#000;shape-rendering:crispEdges;"/>
  <rect x="98.46153846153845" y="144.4102564102564" width="6.564102564102564" height="6.564102564102564" style="fill:#000;shape-rendering:crispEdges;"/>
  <rect x="105.02564102564102" y="144.4102564102564" width="6.564102564102564" height="6.564102564102564" style="fill:#000;shape-rendering:crispEdges;"/>
  <rect x="118.15384615384615" y="144.4102564102564" width="6.564102564102564" height="6.564102564102564" style="fill:#000;shape-rendering:crispEdges;"/>
  <rect x="124.71794871794872" y="144.4102564102564" width="6.564102564102564" height="6.564102564102564" style="fill:#000;shape-rendering:crispEdges;"/>
  <rect x="144.4102564102564" y="144.4102564102564" width="6.564102564102564" height="6.564102564102564" style="fill:#000;shape-rendering:crispEdges;"/>
  <rect x="164.1025641025641" y="144.4102564102564" width="6.564102564102564" height="6.564102564102564" style="fill:#000;shape-rendering:crispEdges;"/>
  <rect x="170.66666666666666" y="144.4102564102564" width="6.564102564102564" height="6.564102564102564" style="fill:#000;shape-rendering:crispEdges;"/>
  <rect x="183.7948717948718" y="144.4102564102564" width="6.564102564102564" height="6.564102564102564" style="fill:#000;shape-rendering:crispEdges;"/>
  <rect x="196.9230769230769" y="144.4102564102564" width="6.564102564102564" height="6.564102564102564" style="fill:#000;shape-rendering:crispEdges;"/>
  <rect x="216.6153846153846" y="144.4102564102564" width="6.564102564102564" height="6.564102564102564" style="fill:#000;shape-rendering:crispEdges;"/>
  <rect x="32.82051282051282" y="150.97435897435895" width="6.564102564102564" height="6.564102564102564" style="fill:#000;shape-rendering:crispEdges;"/>
  <rect x="39.38461538461538" y="150.97435897435895" width="6.564102564102564" height="6.564102564102564" style="fill:#000;shape-rendering:crispEdges;"/>
  <rect x="65.64102564102564" y="150.97435897435895" width="6.564102564102564" height="6.564102564102564" style="fill:#000;shape-rendering:crispEdges;"/>
  <rect x="72.2051282051282" y="150.97435897435895" width="6.564102564102564" height="6.564102564102564" style="fill:#000;shape-rendering:crispEdges;"/>
  <rect x="78.76923076923077" y="150.97435897435895" width="6.564102564102564" height="6.564102564102564" style="fill:#000;shape-rendering:crispEdges;"/>
  <rect x="98.46153846153845" y="150.97435897435895" width="6.564102564102564" height="6.564102564102564" style="fill:#000;shape-rendering:crispEdges;"/>
  <rect x="105.02564102564102" y="150.97435897435895" width="6.564102564102564" height="6.564102564102564" style="fill:#000;shape-rendering:crispEdges;"/>
  <rect x="111.58974358974359" y="150.97435897435895" width="6.564102564102564" height="6.564102564102564" style="fill:#000;shape-rendering:crispEdges;"/>
  <rect x="118.15384615384615" y="150.97435897435895" width="6.564102564102564" height="6.564102564102564" style="fill:#000;shape-rendering:crispEdges;"/>
  <rect x="131.28205128205127" y="150.97435897435895" width="6.564102564102564" height="6.564102564102564" style="fill:#000;shape-rendering:crispEdges;"/>
  <rect x="144.4102564102564" y="150.97435897435895" width="6.564102564102564" height="6.564102564102564" style="fill:#000;shape-rendering:crispEdges;"/>
  <rect x="150.97435897435895" y="150.97435897435895" width="6.564102564102564" height="6.564102564102564" style="fill:#000;shape-rendering:crispEdges;"/>
  <rect x="170.66666666666666" y="150.97435897435895" width="6.564102564102564" height="6.564102564102564" style="fill:#000;shape-rendering:crispEdges;"/>
  <rect x="196.9230769230769" y="150.97435897435895" width="6.564102564102564" height="6.564102564102564" style="fill:#000;shape-rendering:crispEdges;"/>
  <rect x="216.6153846153846" y="150.97435897435895" width="6.564102564102564" height="6.564102564102564" style="fill:#000;shape-rendering:crispEdges;"/>
  <rect x="39.38461538461538" y="157.53846153846155" width="6.564102564102564" height="6.564102564102564" style="fill:#000;shape-rendering:crispEdges;"/>
  <rect x="45.94871794871794" y="157.53846153846155" width="6.564102564102564" height="6.564102564102564" style="fill:#000;shape-rendering:crispEdges;"/>
  <rect x="59.07692307692307" y="157.53846153846155" width="6.564102564102564" height="6.564102564102564" style="fill:#000;shape-rendering:crispEdges;"/>
  <rect x="91.89743589743588" y="157.53846153846155" width="6.564102564102564" height="6.564102564102564" style="fill:#000;shape-rendering:crispEdges;"/>
  <rect x="105.02564102564102" y="157.53846153846155" width="6.564102564102564" height="6.564102564102564" style="fill:#000;shape-rendering:crispEdges;"/>
  <rect x="124.71794871794872" y="157.53846153846155" width="6.564102564102564" height="6.564102564102564" style="fill:#000;shape-rendering:crispEdges;"/>
  <rect x="131.28205128205127" y="157.53846153846155" width="6.564102564102564" height="6.564102564102564" style="fill:#000;shape-rendering:crispEdges;"/>
  <rect x="144.4102564102564" y="157.53846153846155" width="6.564102564102564" height="6.564102564102564" style="fill:#000;shape-rendering:crispEdges;"/>
  <rect x="150.97435897435895" y="157.53846153846155" width="6.564102564102564" height="6.564102564102564" style="fill:#000;shape-rendering:crispEdges;"/>
  <rect x="157.53846153846155" y="157.53846153846155" width="6.564102564102564" height="6.564102564102564" style="fill:#000;shape-rendering:crispEdges;"/>
  <rect x="164.1025641025641" y="157.53846153846155" width="6.564102564102564" height="6.564102564102564" style="fill:#000;shape-rendering:crispEdges;"/>
  <rect x="177.23076923076923" y="157.53846153846155" width="6.564102564102564" height="6.564102564102564" style="fill:#000;shape-rendering:crispEdges;"/>
  <rect x="183.7948717948718" y="157.53846153846155" width="6.564102564102564" height="6.564102564102564" style="fill:#000;shape-rendering:crispEdges;"/>
  <rect x="190.35897435897436" y="157.53846153846155" width="6.564102564102564" height="6.564102564102564" style="fill:#000;shape-rendering:crispEdges;"/>
  <rect x="196.9230769230769" y="157.53846153846155" width="6.564102564102564" height="6.564102564102564" style="fill:#000;shape-rendering:crispEdges;"/>
  <rect x="203.48717948717947" y="157.53846153846155" width="6.564102564102564" height="6.564102564102564" style="fill:#000;shape-rendering:crispEdges;"/>
  <rect x="216.6153846153846" y="157.53846153846155" width="6.564102564102564" height="6.564102564102564" style="fill:#000;shape-rendering:crispEdges;"/>
  <rect x="45.94871794871794" y="164.1025641025641" width="6.564102564102564" height="6.564102564102564" style="fill:#000;shape-rendering:crispEdges;"/>
  <rect x="65.64102564102564" y="164.1025641025641" width="6.564102564102564" height="6.564102564102564" style="fill:#000;shape-rendering:crispEdges;"/>
  <rect x="72.2051282051282" y="164.1025641025641" width="6.564102564102564" height="6.564102564102564" style="fill:#000;shape-rendering:crispEdges;"/>
  <rect x="78.76923076923077" y="164.1025641025641" width="6.564102564102564" height="6.564102564102564" style="fill:#000;shape-rendering:crispEdges;"/>
  <rect x="105.02564102564102" y="164.1025641025641" width="6.564102564102564" height="6.564102564102564" style="fill:#000;shape-rendering:crispEdges;"/>
  <rect x="111.58974358974359" y="164.1025641025641" width="6.564102564102564" height="6.564102564102564" style="fill:#000;shape-rendering:crispEdges;"/>
  <rect x="131.28205128205127" y="164.1025641025641" width="6.564102564102564" height="6.564102564102564" style="fill:#000;shape-rendering:crispEdges;"/>
  <rect x="144.4102564102564" y="164.1025641025641" width="6.564102564102564" height="6.564102564102564" style="fill:#000;shape-rendering:crispEdges;"/>
  <rect x="164.1025641025641" y="164.1025641025641" width="6.564102564102564" height="6.564102564102564" style="fill:#000;shape-rendering:crispEdges;"/>
  <rect x="170.66666666666666" y="164.1025641025641" width="6.564102564102564" height="6.564102564102564" style="fill:#000;shape-rendering:crispEdges;"/>
  <rect x="177.23076923076923" y="164.1025641025641" width="6.564102564102564" height="6.564102564102564" style="fill:#000;shape-rendering:crispEdges;"/>
  <rect x="183.7948717948718" y="164.1025641025641" width="6.564102564102564" height="6.564102564102564" style="fill:#000;shape-rendering:crispEdges;"/>
  <rect x="190.35897435897436" y="164.1025641025641" width="6.564102564102564" height="6.564102564102564" style="fill:#000;shape-rendering:crispEdges;"/>
  <rect x="196.9230769230769" y="164.1025641025641" width="6.564102564102564" height="6.564102564102564" style="fill:#000;shape-rendering:crispEdges;"/>
  <rect x="203.48717948717947" y="164.1025641025641" width="6.564102564102564" height="6.564102564102564" style="fill:#000;shape-rendering:crispEdges;"/>
  <rect x="216.6153846153846" y="164.1025641025641" width="6.564102564102564" height="6.564102564102564" style="fill:#000;shape-rendering:crispEdges;"/>
  <rect x="85.33333333333333" y="170.66666666666666" width="6.564102564102564" height="6.564102564102564" style="fill:#000;shape-rendering:crispEdges;"/>
  <rect x="105.02564102564102" y="170.66666666666666" width="6.564102564102564" height="6.564102564102564" style="fill:#000;shape-rendering:crispEdges;"/>
  <rect x="118.15384615384615" y="170.66666666666666" width="6.564102564102564" height="6.564102564102564" style="fill:#000;shape-rendering:crispEdges;"/>
  <rect x="124.71794871794872" y="170.66666666666666" width="6.564102564102564" height="6.564102564102564" style="fill:#000;shape-rendering:crispEdges;"/>
  <rect x="157.53846153846155" y="170.66666666666666" width="6.564102564102564" height="6.564102564102564" style="fill:#000;shape-rendering:crispEdges;"/>
  <rect x="164.1025641025641" y="170.66666666666666" width="6.564102564102564" height="6.564102564102564" style="fill:#000;shape-rendering:crispEdges;"/>
  <rect x="190.35897435897436" y="170.66666666666666" width="6.564102564102564" height="6.564102564102564" style="fill:#000;shape-rendering:crispEdges;"/>
  <rect x="203.48717948717947" y="170.66666666666666" width="6.564102564102564" height="6.564102564102564" style="fill:#000;shape-rendering:crispEdges;"/>
  <rect x="210.05128205128204" y="170.66666666666666" width="6.564102564102564" height="6.564102564102564" style="fill:#000;shape-rendering:crispEdges;"/>
  <rect x="216.6153846153846" y="170.66666666666666" width="6.564102564102564" height="6.564102564102564" style="fill:#000;shape-rendering:crispEdges;"/>
  <rect x="32.82051282051282" y="177.23076923076923" width="6.564102564102564" height="6.564102564102564" style="fill:#000;shape-rendering:crispEdges;"/>
  <rect x="39.38461538461538" y="177.23076923076923" width="6.564102564102564" height="6.564102564102564" style="fill:#000;shape-rendering:crispEdges;"/>
  <rect x="45.94871794871794" y="177.23076923076923" width="6.564102564102564" height="6.564102564102564" style="fill:#000;shape-rendering:crispEdges;"/>
  <rect x="52.51282051282051" y="177.23076923076923" width="6.564102564102564" height="6.564102564102564" style="fill:#000;shape-rendering:crispEdges;"/>
  <rect x="59.07692307692307" y="177.23076923076923" width="6.564102564102564" height="6.564102564102564" style="fill:#000;shape-rendering:crispEdges;"/>
  <rect x="65.64102564102564" y="177.23076923076923" width="6.564102564102564" height="6.564102564102564" style="fill:#000;shape-rendering:crispEdges;"/>
  <rect x="72.2051282051282" y="177.23076923076923" width="6.564102564102564" height="6.564102564102564" style="fill:#000;shape-rendering:crispEdges;"/>
  <rect x="98.46153846153845" y="177.23076923076923" width="6.564102564102564" height="6.564102564102564" style="fill:#000;shape-rendering:crispEdges;"/>
  <rect x="105.02564102564102" y="177.23076923076923" width="6.564102564102564" height="6.564102564102564" style="fill:#000;shape-rendering:crispEdges;"/>
  <rect x="111.58974358974359" y="177.23076923076923" width="6.564102564102564" height="6.564102564102564" style="fill:#000;shape-rendering:crispEdges;"/>
  <rect x="118.15384615384615" y="177.23076923076923" width="6.564102564102564" height="6.564102564102564" style="fill:#000;shape-rendering:crispEdges;"/>
  <rect x="124.71794871794872" y="177.23076923076923" width="6.564102564102564" height="6.564102564102564" style="fill:#000;shape-rendering:crispEdges;"/>
  <rect x="131.28205128205127" y="177.23076923076923" width="6.564102564102564" height="6.564102564102564" style="fill:#000;shape-rendering:crispEdges;"/>
  <rect x="164.1025641025641" y="177.23076923076923" width="6.564102564102564" height="6.564102564102564" style="fill:#000;shape-rendering:crispEdges;"/>
  <rect x="177.23076923076923" y="177.23076923076923" width="6.564102564102564" height="6.564102564102564" style="fill:#000;shape-rendering:crispEdges;"/>
  <rect x="190.35897435897436" y="177.23076923076923" width="6.564102564102564" height="6.564102564102564" style="fill:#000;shape-rendering:crispEdges;"/>
  <rect x="216.6153846153846" y="177.23076923076923" width="6.564102564102564" height="6.564102564102564" style="fill:#000;shape-rendering:crispEdges;"/>
  <rect x="32.82051282051282" y="183.7948717948718" width="6.564102564102564" height="6.564102564102564" style="fill:#000;shape-rendering:crispEdges;"/>
  <rect x="72.2051282051282" y="183.7948717948718" width="6.564102564102564" height="6.564102564102564" style="fill:#000;shape-rendering:crispEdges;"/>
  <rect x="105.02564102564102" y="183.7948717948718" width="6.564102564102564" height="6.564102564102564" style="fill:#000;shape-rendering:crispEdges;"/>
  <rect x="111.58974358974359" y="183.7948717948718" width="6.564102564102564" height="6.564102564102564" style="fill:#000;shape-rendering:crispEdges;"/>
  <rect x="118.15384615384615" y="183.7948717948718" width="6.564102564102564" height="6.564102564102564" style="fill:#000;shape-rendering:crispEdges;"/>
  <rect x="131.28205128205127" y="183.7948717948718" width="6.564102564102564" height="6.564102564102564" style="fill:#000;shape-rendering:crispEdges;"/>
  <rect x="137.84615384615384" y="183.7948717948718" width="6.564102564102564" height="6.564102564102564" style="fill:#000;shape-rendering:crispEdges;"/>
  <rect x="157.53846153846155" y="183.7948717948718" width="6.564102564102564" height="6.564102564102564" style="fill:#000;shape-rendering:crispEdges;"/>
  <rect x="164.1025641025641" y="183.7948717948718" width="6.564102564102564" height="6.564102564102564" style="fill:#000;shape-rendering:crispEdges;"/>
  <rect x="190.35897435897436" y="183.7948717948718" width="6.564102564102564" height="6.564102564102564" style="fill:#000;shape-rendering:crispEdges;"/>
  <rect x="203.48717948717947" y="183.7948717948718" width="6.564102564102564" height="6.564102564102564" style="fill:#000;shape-rendering:crispEdges;"/>
  <rect x="32.82051282051282" y="190.35897435897436" width="6.564102564102564" height="6.564102564102564" style="fill:#000;shape-rendering:crispEdges;"/>
  <rect x="45.94871794871794" y="190.35897435897436" width="6.564102564102564" height="6.564102564102564" style="fill:#000;shape-rendering:crispEdges;"/>
  <rect x="52.51282051282051" y="190.35897435897436" width="6.564102564102564" height="6.564102564102564" style="fill:#000;shape-rendering:crispEdges;"/>
  <rect x="59.07692307692307" y="190.35897435897436" width="6.564102564102564" height="6.564102564102564" style="fill:#000;shape-rendering:crispEdges;"/>
  <rect x="72.2051282051282" y="190.35897435897436" width="6.564102564102564" height="6.564102564102564" style="fill:#000;shape-rendering:crispEdges;"/>
  <rect x="85.33333333333333" y="190.35897435897436" width="6.564102564102564" height="6.564102564102564" style="fill:#000;shape-rendering:crispEdges;"/>
  <rect x="91.89743589743588" y="190.35897435897436" width="6.564102564102564" height="6.564102564102564" style="fill:#000;shape-rendering:crispEdges;"/>
  <rect x="98.46153846153845" y="190.35897435897436" width="6.564102564102564" height="6.564102564102564" style="fill:#000;shape-rendering:crispEdges;"/>
  <rect x="118.15384615384615" y="190.35897435897436" width="6.564102564102564" height="6.564102564102564" style="fill:#000;shape-rendering:crispEdges;"/>
  <rect x="144.4102564102564" y="190.35897435897436" width="6.564102564102564" height="6.564102564102564" style="fill:#000;shape-rendering:crispEdges;"/>
  <rect x="164.1025641025641" y="190.35897435897436" width="6.564102564102564" height="6.564102564102564" style="fill:#000;shape-rendering:crispEdges;"/>
  <rect x="170.66666666666666" y="190.35897435897436" width="6.564102564102564" height="6.564102564102564" style="fill:#000;shape-rendering:crispEdges;"/>
  <rect x="177.23076923076923" y="190.35897435897436" width="6.564102564102564" height="6.564102564102564" style="fill:#000;shape-rendering:crispEdges;"/>
  <rect x="183.7948717948718" y="190.35897435897436" width="6.564102564102564" height="6.564102564102564" style="fill:#000;shape-rendering:crispEdges;"/>
  <rect x="190.35897435897436" y="190.35897435897436" width="6.564102564102564" height="6.564102564102564" style="fill:#000;shape-rendering:crispEdges;"/>
  <rect x="203.48717948717947" y="190.35897435897436" width="6.564102564102564" height="6.564102564102564" style="fill:#000;shape-rendering:crispEdges;"/>
  <rect x="210.05128205128204" y="190.35897435897436" width="6.564102564102564" height="6.564102564102564" style="fill:#000;shape-rendering:crispEdges;"/>
  <rect x="216.6153846153846" y="190.35897435897436" width="6.564102564102564" height="6.564102564102564" style="fill:#000;shape-rendering:crispEdges;"/>
  <rect x="32.82051282051282" y="196.9230769230769" width="6.564102564102564" height="6.564102564102564" style="fill:#000;shape-rendering:crispEdges;"/>
  <rect x="45.94871794871794" y="196.9230769230769" width="6.564102564102564" height="6.564102564102564" style="fill:#000;shape-rendering:crispEdges;"/>
  <rect x="52.51282051282051" y="196.9230769230769" width="6.564102564102564" height="6.564102564102564" style="fill:#000;shape-rendering:crispEdges;"/>
  <rect x="59.07692307692307" y="196.9230769230769" width="6.564102564102564" height="6.564102564102564" style="fill:#000;shape-rendering:crispEdges;"/>
  <rect x="72.2051282051282" y="196.9230769230769" width="6.564102564102564" height="6.564102564102564" style="fill:#000;shape-rendering:crispEdges;"/>
  <rect x="105.02564102564102" y="196.9230769230769" width="6.564102564102564" height="6.564102564102564" style="fill:#000;shape-rendering:crispEdges;"/>
  <rect x="118.15384615384615" y="196.9230769230769" width="6.564102564102564" height="6.564102564102564" style="fill:#000;shape-rendering:crispEdges;"/>
  <rect x="137.84615384615384" y="196.9230769230769" width="6.564102564102564" height="6.564102564102564" style="fill:#000;shape-rendering:crispEdges;"/>
  <rect x="150.97435897435895" y="196.9230769230769" width="6.564102564102564" height="6.564102564102564" style="fill:#000;shape-rendering:crispEdges;"/>
  <rect x="157.53846153846155" y="196.9230769230769" width="6.564102564102564" height="6.564102564102564" style="fill:#000;shape-rendering:crispEdges;"/>
  <rect x="164.1025641025641" y="196.9230769230769" width="6.564102564102564" height="6.564102564102564" style="fill:#000;shape-rendering:crispEdges;"/>
  <rect x="170.66666666666666" y="196.9230769230769" width="6.564102564102564" height="6.564102564102564" style="fill:#000;shape-rendering:crispEdges;"/>
  <rect x="177.23076923076923" y="196.9230769230769" width="6.564102564102564" height="6.564102564102564" style="fill:#000;shape-rendering:crispEdges;"/>
  <rect x="190.35897435897436" y="196.9230769230769" width="6.564102564102564" height="6.564102564102564" style="fill:#000;shape-rendering:crispEdges;"/>
  <rect x="210.05128205128204" y="196.9230769230769" width="6.564102564102564" height="6.564102564102564" style="fill:#000;shape-rendering:crispEdges;"/>
  <rect x="216.6153846153846" y="196.9230769230769" width="6.564102564102564" height="6.564102564102564" style="fill:#000;shape-rendering:crispEdges;"/>
  <rect x="32.82051282051282" y="203.48717948717947" width="6.564102564102564" height="6.564102564102564" style="fill:#000;shape-rendering:crispEdges;"/>
  <rect x="45.94871794871794" y="203.48717948717947" width="6.564102564102564" height="6.564102564102564" style="fill:#000;shape-rendering:crispEdges;"/>
  <rect x="52.51282051282051" y="203.48717948717947" width="6.564102564102564" height="6.564102564102564" style="fill:#000;shape-rendering:crispEdges;"/>
  <rect x="59.07692307692307" y="203.48717948717947" width="6.564102564102564" height="6.564102564102564" style="fill:#000;shape-rendering:crispEdges;"/>
  <rect x="72.2051282051282" y="203.48717948717947" width="6.564102564102564" height="6.564102564102564" style="fill:#000;shape-rendering:crispEdges;"/>
  <rect x="85.33333333333333" y="203.48717948717947" width="6.564102564102564" height="6.564102564102564" style="fill:#000;shape-rendering:crispEdges;"/>
  <rect x="91.89743589743588" y="203.48717948717947" width="6.564102564102564" height="6.564102564102564" style="fill:#000;shape-rendering:crispEdges;"/>
  <rect x="98.46153846153845" y="203.48717948717947" width="6.564102564102564" height="6.564102564102564" style="fill:#000;shape-rendering:crispEdges;"/>
  <rect x="118.15384615384615" y="203.48717948717947" width="6.564102564102564" height="6.564102564102564" style="fill:#000;shape-rendering:crispEdges;"/>
  <rect x="124.71794871794872" y="203.48717948717947" width="6.564102564102564" height="6.564102564102564" style="fill:#000;shape-rendering:crispEdges;"/>
  <rect x="131.28205128205127" y="203.48717948717947" width="6.564102564102564" height="6.564102564102564" style="fill:#000;shape-rendering:crispEdges;"/>
  <rect x="144.4102564102564" y="203.48717948717947" width="6.564102564102564" height="6.564102564102564" style="fill:#000;shape-rendering:crispEdges;"/>
  <rect x="157.53846153846155" y="203.48717948717947" width="6.564102564102564" height="6.564102564102564" style="fill:#000;shape-rendering:crispEdges;"/>
  <rect x="164.1025641025641" y="203.48717948717947" width="6.564102564102564" height="6.564102564102564" style="fill:#000;shape-rendering:crispEdges;"/>
  <rect x="203.48717948717947" y="203.48717948717947" width="6.564102564102564" height="6.564102564102564" style="fill:#000;shape-rendering:crispEdges;"/>
  <rect x="210.05128205128204" y="203.48717948717947" width="6.564102564102564" height="6.564102564102564" style="fill:#000;shape-rendering:crispEdges;"/>
  <rect x="32.82051282051282" y="210.05128205128204" width="6.564102564102564" height="6.564102564102564" style="fill:#000;shape-rendering:crispEdges;"/>
  <rect x="72.2051282051282" y="210.05128205128204" width="6.564102564102564" height="6.564102564102564" style="fill:#000;shape-rendering:crispEdges;"/>
  <rect x="85.33333333333333" y="210.05128205128204" width="6.564102564102564" height="6.564102564102564" style="fill:#000;shape-rendering:crispEdges;"/>
  <rect x="91.89743589743588" y="210.05128205128204" width="6.564102564102564" height="6.564102564102564" style="fill:#000;shape-rendering:crispEdges;"/>
  <rect x="118.15384615384615" y="210.05128205128204" width="6.564102564102564" height="6.564102564102564" style="fill:#000;shape-rendering:crispEdges;"/>
  <rect x="144.4102564102564" y="210.05128205128204" width="6.564102564102564" height="6.564102564102564" style="fill:#000;shape-rendering:crispEdges;"/>
  <rect x="164.1025641025641" y="210.05128205128204" width="6.564102564102564" height="6.564102564102564" style="fill:#000;shape-rendering:crispEdges;"/>
  <rect x="183.7948717948718" y="210.05128205128204" width="6.564102564102564" height="6.564102564102564" style="fill:#000;shape-rendering:crispEdges;"/>
  <rect x="196.9230769230769" y="210.05128205128204" width="6.564102564102564" height="6.564102564102564" style="fill:#000;shape-rendering:crispEdges;"/>
  <rect x="203.48717948717947" y="210.05128205128204" width="6.564102564102564" height="6.564102564102564" style="fill:#000;shape-rendering:crispEdges;"/>
  <rect x="32.82051282051282" y="216.6153846153846" width="6.564102564102564" height="6.564102564102564" style="fill:#000;shape-rendering:crispEdges;"/>
  <rect x="39.38461538461538" y="216.6153846153846" width="6.564102564102564" height="6.564102564102564" style="fill:#000;shape-rendering:crispEdges;"/>
  <rect x="45.94871794871794" y="216.6153846153846" width="6.564102564102564" height="6.564102564102564" style="fill:#000;shape-rendering:crispEdges;"/>
  <rect x="52.51282051282051" y="216.6153846153846" width="6.564102564102564" height="6.564102564102564" style="fill:#000;shape-rendering:crispEdges;"/>
  <rect x="59.07692307692307" y="216.6153846153846" width="6.564102564102564" height="6.564102564102564" style="fill:#000;shape-rendering:crispEdges;"/>
  <rect x="65.64102564102564" y="216.6153846153846" width="6.564102564102564" height="6.564102564102564" style="fill:#000;shape-rendering:crispEdges;"/>
  <rect x="72.2051282051282" y="216.6153846153846" width="6.564102564102564" height="6.564102564102564" style="fill:#000;shape-rendering:crispEdges;"/>
  <rect x="85.33333333333333" y="216.6153846153846" width="6.564102564102564" height="6.564102564102564" style="fill:#000;shape-rendering:crispEdges;"/>
  <rect x="105.02564102564102" y="216.6153846153846" width="6.564102564102564" height="6.564102564102564" style="fill:#000;shape-rendering:crispEdges;"/>
  <rect x="111.58974358974359" y="216.6153846153846" width="6.564102564102564" height="6.564102564102564" style="fill:#000;shape-rendering:crispEdges;"/>
  <rect x="118.15384615384615" y="216.6153846153846" width="6.564102564102564" height="6.564102564102564" style="fill:#000;shape-rendering:crispEdges;"/>
  <rect x="124.71794871794872" y="216.6153846153846" width="6.564102564102564" height="6.564102564102564" style="fill:#000;shape-rendering:crispEdges;"/>
  <rect x="131.28205128205127" y="216.6153846153846" width="6.564102564102564" height="6.564102564102564" style="fill:#000;shape-rendering:crispEdges;"/>
  <rect x="150.97435897435895" y="216.6153846153846" width="6.564102564102564" height="6.564102564102564" style="fill:#000;shape-rendering:crispEdges;"/>
  <rect x="183.7948717948718" y="216.6153846153846" width="6.564102564102564" height="6.564102564102564" style="fill:#000;shape-rendering:crispEdges;"/>
  <rect x="203.48717948717947" y="216.6153846153846" width="6.564102564102564" height="6.564102564102564" style="fill:#000;shape-rendering:crispEdges;"/>
  <rect x="210.05128205128204" y="216.6153846153846" width="6.564102564102564" height="6.564102564102564" style="fill:#000;shape-rendering:crispEdges;"/>
</svg>